<?xml version="1.0" encoding="UTF-8"?>
<svg
	xmlns:svg="http://www.w3.org/2000/svg"
	xmlns="http://www.w3.org/2000/svg"
	viewBox="0 0 25 25"
	class="pa-arrows-twins">
	<g>
		<g>
			<path
				class="pa-arrows-body1"
				d="m 12.5,3.5625 c -2.962435,0 -5.590073,1.454326 -7.21875,3.6875 l 3.1875,0.96875 C 9.517761,7.232327 10.932806,6.625 12.5,6.625 c 2.811063,0 5.126778,1.9197601 5.71875,4.541486 l 3.125,0 C 20.699884,6.8688281 16.971041,3.5625 12.5,3.5625 z"
			/>
			<path
				class="pa-arrows-arrow1"
				d="m 14.849326,11 9.821968,0 -4.910984,4.429386 z"
			/>
		</g>
		<g>
			<path
				class="pa-arrows-body2"
				d="M 3.65625,13.839374 C 4.300116,18.137031 8.028959,21.4375 12.5,21.4375 c 2.962435,0 5.590073,-1.454326 7.21875,-3.6875 l -3.1875,-0.96875 C 15.482239,17.767673 14.067194,18.375 12.5,18.375 c -2.811063,0 -5.126778,-1.913901 -5.71875,-4.535626 z"
			/>
			<path
				class="pa-arrows-arrow2"
				d="m 10.150674,14 -9.821968,0 4.910984,-4.429386 z"
			/>
		</g>
		<animateTransform
			repeatCount="indefinite"
			dur="1s"
			begin="0s"
			to="360,12.5,12.5"
			from="0,12.5,12.5"
			type="rotate"
			attributeName="transform"
			attributeType="XML"
		/>
	</g>
</svg>
